<?xml version="1.0" standalone="no"?>
<!DOCTYPE svg PUBLIC "-//W3C//DTD SVG 20010904//EN"
 "http://www.w3.org/TR/2001/REC-SVG-20010904/DTD/svg10.dtd">
<svg version="1.0" xmlns="http://www.w3.org/2000/svg"
 width="512.000000pt" height="512.000000pt" viewBox="0 0 512.000000 512.000000"
 preserveAspectRatio="xMidYMid meet">
<metadata>
Created by potrace 1.11, written by Peter Selinger 2001-2013
</metadata>
<g transform="translate(0.000000,512.000000) scale(0.100000,-0.100000)"
fill="#000000" stroke="none">
<path d="M2518 4815 c-2 -1 -30 -5 -63 -8 -315 -32 -592 -239 -715 -533 -98
-237 -89 -498 27 -730 119 -239 308 -386 598 -465 80 -22 302 -17 399 10 392
106 658 449 656 846 0 154 -25 260 -90 391 -134 272 -413 463 -700 481 -41 2
-83 6 -92 7 -9 2 -18 3 -20 1z"/>
<path d="M1128 3435 c-2 -1 -31 -6 -66 -9 -34 -4 -72 -10 -85 -15 -12 -5 -26
-9 -32 -10 -56 -7 -200 -78 -286 -142 -161 -119 -271 -286 -326 -494 -17 -64
-24 -287 -11 -360 20 -117 89 -274 161 -370 141 -187 366 -316 597 -343 149
-18 277 -2 415 51 262 99 456 313 536 587 28 99 35 306 12 406 -33 148 -107
296 -204 408 -115 133 -334 253 -514 281 -46 7 -192 15 -197 10z"/>
<path d="M3805 3429 c-259 -35 -493 -189 -629 -414 -25 -41 -46 -78 -46 -81 0
-3 -6 -20 -14 -37 -46 -100 -60 -180 -61 -332 0 -176 14 -242 80 -380 116
-241 318 -409 575 -475 77 -20 82 -21 192 -24 244 -7 458 75 631 243 202 194
296 458 263 741 -41 364 -338 682 -701 751 -71 14 -220 18 -290 8z"/>
<path d="M2415 2049 c-157 -33 -257 -73 -355 -139 -255 -173 -396 -452 -385
-760 14 -422 328 -770 750 -835 54 -8 205 -8 252 1 377 66 652 328 728 694 18
84 20 236 6 322 -55 326 -301 598 -626 693 -70 20 -117 27 -210 30 -66 2 -138
-1 -160 -6z"/>
</g>
</svg>
