<svg width="142" height="38" viewBox="0 0 142 38" xmlns="http://www.w3.org/2000/svg" xmlns:xlink="http://www.w3.org/1999/xlink"><title>FSCI_Logo</title><defs><path id="a" d="M.018.176h26.999v37.39h-27z"/></defs><g fill="none" fill-rule="evenodd"><path fill="#E15D5D" d="M17.85 7.658V4.062l13.958 8.245v3.536L17.85 7.658"/><path fill="#EFB84E" d="M31.808 37.566l.003-20.12-3.31-1.94v22.06h3.307"/><g><mask id="b" fill="#fff"><use xlink:href="#a"/></mask><path fill="#8BC369" mask="url(#b)" d="M17.855 37.566h9.16l.002-22.93-9.162-5.371v28.3"/><path fill="#385C80" mask="url(#b)" d="M12.194 37.566h2.775V.176L0 8.77l.008 2.954 12.188-6.878-.002 32.72"/><path fill="#80C8C5" mask="url(#b)" d="M0 13.279l.014 24.287h6.158l.002-24.624h1.484v24.624h3.051l.002-30.315L0 13.279"/></g><path d="M40.13 4.069h6.371v1.37h-4.866v2.335h4.316v1.37h-4.316v3.484H40.13V4.069zm7.682 8.559V4.069h1.504v8.559h-1.504zm3.24-8.559h1.393l4.585 5.918V4.07h1.48v8.559h-1.26l-4.72-6.089v6.089h-1.479V4.069zm12.078-.06h1.394l3.765 8.619H66.7l-.868-2.066h-4.047l-.88 2.066h-1.541l3.766-8.62zm6.014.06h1.393l4.586 5.918V4.07h1.479v8.559h-1.26l-4.72-6.089v6.089h-1.478V4.069zm8.495 4.304V8.35c0-2.434 1.822-4.427 4.414-4.427 1.578 0 2.531.55 3.35 1.333l-.965 1.113c-.685-.636-1.419-1.064-2.397-1.064-1.638 0-2.824 1.345-2.824 3.02v.025c0 1.674 1.186 3.044 2.824 3.044 1.052 0 1.724-.428 2.458-1.113l.966.978c-.893.93-1.871 1.517-3.473 1.517-2.494 0-4.353-1.944-4.353-4.402zm9.08 4.255V4.069h1.504v8.559h-1.504zm3.24-8.559h1.393l4.585 5.918V4.07h1.48v8.559h-1.26l-4.72-6.089v6.089h-1.479V4.069zm8.507 4.304V8.35c0-2.397 1.834-4.427 4.414-4.427 1.492 0 2.41.416 3.29 1.162l-.954 1.137c-.66-.562-1.308-.917-2.397-.917-1.577 0-2.775 1.382-2.775 3.02v.025c0 1.76 1.16 3.056 2.91 3.056.806 0 1.54-.256 2.066-.648V9.156h-2.189V7.847h3.644v3.595a5.455 5.455 0 0 1-3.57 1.333c-2.678 0-4.439-1.907-4.439-4.402zm-58.91 15.45l.905-1.076c.82.709 1.638 1.113 2.702 1.113.93 0 1.516-.429 1.516-1.077v-.024c0-.611-.342-.942-1.931-1.309-1.823-.44-2.85-.978-2.85-2.555v-.025c0-1.467 1.223-2.482 2.923-2.482 1.247 0 2.237.38 3.105 1.077L45.12 18.6c-.771-.574-1.541-.88-2.324-.88-.88 0-1.394.453-1.394 1.015v.025c0 .66.392.954 2.03 1.344 1.81.441 2.751 1.089 2.751 2.507v.025c0 1.601-1.26 2.555-3.057 2.555a5.273 5.273 0 0 1-3.57-1.37zm7.433-2.385v-4.927h1.504v4.866c0 1.59.819 2.446 2.164 2.446 1.333 0 2.152-.808 2.152-2.385v-4.927h1.504v4.854c0 2.555-1.443 3.84-3.68 3.84-2.226 0-3.644-1.285-3.644-3.767zm8.251 2.385l.905-1.076c.82.709 1.638 1.113 2.702 1.113.93 0 1.516-.429 1.516-1.077v-.024c0-.611-.342-.942-1.931-1.309-1.822-.44-2.85-.978-2.85-2.555v-.025c0-1.467 1.223-2.482 2.923-2.482 1.247 0 2.237.38 3.106 1.077l-.807 1.136c-.77-.574-1.54-.88-2.323-.88-.881 0-1.395.453-1.395 1.015v.025c0 .66.392.954 2.03 1.344 1.81.441 2.751 1.089 2.751 2.507v.025c0 1.601-1.26 2.555-3.057 2.555a5.272 5.272 0 0 1-3.57-1.37zm9.878-5.919h-2.714v-1.393h6.945v1.393h-2.715v7.166h-1.516v-7.166zm7.152-1.454h1.394l3.766 8.62h-1.59l-.868-2.067h-4.047l-.88 2.067h-1.541l3.766-8.62zm5.818 8.62v-8.56h1.504v8.56h-1.504zm3.264-8.56h1.394l4.585 5.919v-5.918h1.48v8.559h-1.26l-4.72-6.09v6.09h-1.48v-8.56zm11.834-.06h1.394l3.766 8.62h-1.59l-.868-2.067h-4.047l-.88 2.067H89.42l3.766-8.62zm5.99.06h3.839c.978 0 1.748.27 2.237.759.379.38.575.844.575 1.418v.025c0 1.027-.587 1.577-1.223 1.907 1.003.343 1.7.917 1.7 2.078v.025c0 1.529-1.26 2.348-3.167 2.348h-3.962v-8.56zm8.278 0h1.503v7.19h4.5v1.37h-6.003v-8.56zm7.146 0h6.346v1.346h-4.842v2.225h4.291v1.345h-4.291v2.299h4.903v1.345H114.6v-8.56zM39.752 33.27v-.025c0-2.433 1.821-4.426 4.414-4.426 1.577 0 2.53.55 3.35 1.332l-.966 1.113c-.685-.636-1.418-1.063-2.396-1.063-1.639 0-2.825 1.344-2.825 3.02v.024c0 1.675 1.186 3.044 2.825 3.044 1.05 0 1.724-.427 2.457-1.112l.966.978c-.892.929-1.87 1.516-3.472 1.516-2.495 0-4.353-1.944-4.353-4.401zm9.08 4.255v-8.56h1.503v8.56h-1.504zm5.395-7.166h-2.714v-1.393h6.945v1.393h-2.715v7.166h-1.516v-7.166zm5.428 7.166v-8.56h1.503v8.56h-1.503zm3.143-8.56h6.346v1.345h-4.842v2.226h4.292v1.345h-4.292v2.299h4.903v1.345h-6.407v-8.56zm7.376 7.312l.905-1.075c.82.709 1.639 1.112 2.703 1.112.929 0 1.515-.428 1.515-1.076v-.024c0-.612-.342-.942-1.931-1.309-1.822-.44-2.85-.978-2.85-2.555v-.025c0-1.467 1.224-2.482 2.923-2.482 1.247 0 2.238.38 3.106 1.076l-.807 1.137c-.77-.574-1.54-.88-2.323-.88-.88 0-1.394.452-1.394 1.014v.025c0 .66.391.954 2.03 1.345 1.809.44 2.75 1.089 2.75 2.507v.024c0 1.602-1.26 2.556-3.056 2.556a5.273 5.273 0 0 1-3.57-1.37zm11.565 1.248v-8.56h1.504v8.56h-1.504zm3.264-8.56h1.393l4.586 5.919v-5.918h1.48v8.559h-1.26l-4.72-6.09v6.09h-1.48v-8.56zm9.134 8.56v-8.56h1.504v8.56h-1.504zm5.396-7.166h-2.715v-1.393h6.945v1.393h-2.714v7.166h-1.516v-7.166zm5.427 7.166v-8.56h1.504v8.56h-1.504zm6.137-8.62h1.394l3.766 8.62h-1.59l-.868-2.067h-4.047l-.88 2.067h-1.54l3.765-8.62zm6.516 1.454h-2.715v-1.393h6.945v1.393h-2.714v7.166h-1.516v-7.166zm5.183 7.166v-8.56h1.503v8.56h-1.503zm2.37-8.56h1.663l2.58 6.579 2.568-6.578h1.626l-3.558 8.62h-1.32l-3.559-8.62zm9.537 0h6.346v1.345h-4.842v2.226h4.292v1.345h-4.292v2.299h4.903v1.345h-6.407v-8.56zM65.282 9.23l-1.48-3.423-1.467 3.423h2.947zm9.14 12.442l-1.48-3.424-1.467 3.424h2.947zm20.916 0l-1.48-3.424-1.467 3.424h2.947zm7.81 2.066c1.028 0 1.652-.404 1.652-1.174v-.024c0-.722-.575-1.15-1.76-1.15h-2.385v2.348h2.494zm-.439-3.62c.966 0 1.614-.378 1.614-1.161v-.024c0-.673-.538-1.089-1.504-1.089h-2.164v2.275h2.054zm10.54 14.007l-1.48-3.423-1.467 3.423h2.947z" fill="#15487C"/></g></svg>